<svg xmlns="http://www.w3.org/2000/svg" width="130" height="130" viewBox="0 0 130 130">
    <defs>
        <style>
            .cls-2{fill:#e0dfdf;stroke:transparent}
        </style>
    </defs>
    <g id="그룹_1118" transform="translate(-36 -862)">
        <g id="사각형_379" fill="#fff" stroke="#cbcbcb" stroke-width="2px" transform="translate(36 862)">
            <rect width="130" height="130" stroke="none" rx="24"/>
            <rect width="128" height="128" x="1" y="1" fill="none" rx="23"/>
        </g>
        <g id="그룹_1084" transform="translate(-399 -43)">
            <path id="패스_565" d="M934.387-2251.319h-20.668c-4.471 0-7.044-2.557-7.047-7q-.009-12.436 0-24.872c0-4.39 2.577-6.969 6.95-6.982 2.3-.006 4.593-.028 6.889.016a1.355 1.355 0 0 0 1.376-.8c1.143-2.034 2.36-4.025 3.5-6.059a2.743 2.743 0 0 1 2.658-1.514c4.243.034 8.486.042 12.727 0a2.813 2.813 0 0 1 2.727 1.6c1.1 1.966 2.3 3.88 3.382 5.857a1.577 1.577 0 0 0 1.646.92c2.3-.049 4.592-.032 6.889-.014 4.077.033 6.754 2.627 6.774 6.7q.062 12.727 0 25.456c-.021 4.072-2.705 6.677-6.787 6.688-7.003.018-14.01.004-21.016.004zm.01-4.221h21.127c1.66 0 2.518-.745 2.523-2.347q.039-12.839 0-25.679c0-1.634-.84-2.378-2.485-2.385q-4.377-.017-8.754 0a2.754 2.754 0 0 1-2.658-1.524c-1.107-2.007-2.321-3.956-3.436-5.959a1.511 1.511 0 0 0-1.535-.926c-3.19.053-6.381.046-9.57 0a1.435 1.435 0 0 0-1.449.87c-1.12 2-2.338 3.946-3.44 5.956a2.809 2.809 0 0 1-2.74 1.584c-2.84-.025-5.68-.013-8.521-.006-1.981 0-2.566.585-2.567 2.565q-.006 12.6 0 25.212c0 2.066.563 2.635 2.612 2.637q10.446.007 20.896.002z" class="cls-2" transform="translate(-435.667 3250.016)"/>
            <path id="패스_566" d="M1022.244-2309.338c0 1.654.085 3.094-.028 4.518a1.839 1.839 0 0 1-1.929 1.669 1.973 1.973 0 0 1-2.057-1.676 8.252 8.252 0 0 1-.112-1.389c-.016-.968 0-1.937 0-3.121-.984 0-1.9.013-2.808 0a10.015 10.015 0 0 1-1.738-.121 1.939 1.939 0 0 1-1.637-2.085 1.842 1.842 0 0 1 1.7-1.9c1.423-.1 2.858-.025 4.481-.025 0-1.072-.012-1.949 0-2.824a11.226 11.226 0 0 1 .1-1.74 2.012 2.012 0 0 1 2.015-1.74 1.927 1.927 0 0 1 1.993 1.749c.113 1.418.028 2.853.028 4.452 1.087 0 1.966-.012 2.846 0a12.477 12.477 0 0 1 1.739.111 1.924 1.924 0 0 1 1.694 1.922 1.9 1.9 0 0 1-1.646 2.07 24.749 24.749 0 0 1-2.9.13c-.493.012-.985 0-1.741 0z" class="cls-2" transform="translate(-493.961 3261.778)"/>
            <path id="패스_567" d="M954.232-2264.262a11.867 11.867 0 0 1 11.8 11.708 11.832 11.832 0 0 1-11.732 11.884 11.849 11.849 0 0 1-11.867-11.757 11.868 11.868 0 0 1 11.799-11.835zm7.576 11.879a7.679 7.679 0 0 0-7.561-7.731 7.757 7.757 0 0 0-7.627 7.594 7.689 7.689 0 0 0 7.607 7.7 7.6 7.6 0 0 0 7.581-7.563z" class="cls-2" transform="translate(-455.477 3231.032)"/>
        </g>
    </g>
</svg>
