<svg xmlns="http://www.w3.org/2000/svg" width="27.333" height="27.333" viewBox="0 0 27.333 27.333">
    <path fill="#fff" d="M1189.445-2373.444a13.666 13.666 0 0 0-13.667 13.667 13.667 13.667 0 0 0 13.667 13.667 13.667 13.667 0 0 0 13.667-13.667 13.667 13.667 0 0 0-13.667-13.667zm6.137 19.8c-.853.835-1.647.4-2.35-.334-1.223-1.27-2.455-2.532-3.846-3.966l-3.779 3.971c-.7.732-1.5 1.191-2.336.324-.813-.845-.386-1.637.361-2.344 1.249-1.182 2.469-2.394 3.938-3.823-1.368-1.281-2.616-2.452-3.866-3.62-.776-.725-1.262-1.605-.416-2.477.881-.908 1.717-.321 2.438.432 1.16 1.212 2.337 2.408 3.717 3.827 1.367-1.424 2.589-2.7 3.812-3.97.665-.692 1.453-1.088 2.255-.344.856.794.528 1.646-.213 2.36-1.268 1.225-2.555 2.429-4.074 3.869 1.469 1.373 2.745 2.578 4.036 3.769.755.696 1.186 1.48.322 2.324z" opacity="0.9" transform="translate(-1175.778 2373.444)"/>
</svg>
